<?xml version="1.0" encoding="UTF-8" standalone="no"?>
<!DOCTYPE svg PUBLIC "-//W3C//DTD SVG 1.1//EN" "http://www.w3.org/Graphics/SVG/1.1/DTD/svg11.dtd">
<svg width="100%" height="100%" viewBox="0 0 4262 5000" version="1.1" xmlns="http://www.w3.org/2000/svg" xmlns:xlink="http://www.w3.org/1999/xlink" xml:space="preserve" xmlns:serif="http://www.serif.com/" style="fill-rule:evenodd;clip-rule:evenodd;stroke-linejoin:round;stroke-miterlimit:2;">
    <g transform="matrix(1,0,0,1,-369.318,0)">
        <g transform="matrix(2.31941e-16,-3.78788,3.78788,2.31941e-16,-999.657,11969.7)">
            <g>
                <g transform="matrix(1,0,0,1,681.447,325)">
                    <clipPath id="_clip1">
                        <rect x="1158.55" y="36.409" width="660" height="562.5"/>
                    </clipPath>
                    <g clip-path="url(#_clip1)">
                        <path d="M1425.55,36.409L1158.55,36.409L1686.55,1161.41L1953.55,1161.41L2478.55,36.409L2216.05,36.409L1823.05,921.409L1425.55,36.409Z" style="fill:white;fill-rule:nonzero;"/>
                    </g>
                </g>
                <g transform="matrix(1,0,0,1,681.447,325)">
                    <clipPath id="_clip2">
                        <rect x="1818.55" y="36.409" width="660" height="1125"/>
                    </clipPath>
                    <g clip-path="url(#_clip2)">
                        <path d="M1425.55,36.409L1158.55,36.409L1823.05,921.409L1953.55,1161.41L2478.55,36.409L2216.05,36.409L1823.05,921.409L1818.55,915.416L1425.55,36.409Z" style="fill:white;fill-rule:nonzero;"/>
                    </g>
                </g>
            </g>
        </g>
    </g>
</svg>
